<svg width="41" height="41" viewBox="0 0 41 41" fill="none" xmlns="http://www.w3.org/2000/svg">
<rect x="0.941406" y="1.47363" width="39" height="39" rx="19.5" fill="#F3FFE5"/>
<rect x="0.941406" y="1.47363" width="39" height="39" rx="19.5" stroke="#007A25"/>
<path d="M23.9594 26.9639H16.6314V25.5879L20.2794 22.2279C20.8021 21.7479 21.2394 21.2412 21.5914 20.7079C21.9434 20.1639 22.1194 19.6199 22.1194 19.0759V18.8839C22.1194 18.2652 21.9487 17.7639 21.6074 17.3799C21.2661 16.9959 20.7487 16.8039 20.0554 16.8039C19.7141 16.8039 19.4154 16.8519 19.1594 16.9479C18.9034 17.0439 18.6794 17.1772 18.4874 17.3479C18.3061 17.5185 18.1514 17.7212 18.0234 17.9559C17.9061 18.1799 17.8101 18.4252 17.7354 18.6919L16.5354 18.2279C16.6421 17.8972 16.7861 17.5772 16.9674 17.2679C17.1594 16.9479 17.3941 16.6652 17.6714 16.4199C17.9594 16.1745 18.3007 15.9772 18.6954 15.8279C19.1007 15.6785 19.5754 15.6039 20.1194 15.6039C20.6634 15.6039 21.1487 15.6839 21.5754 15.8439C22.0021 16.0039 22.3594 16.2279 22.6474 16.5159C22.9354 16.8039 23.1541 17.1452 23.3034 17.5399C23.4634 17.9345 23.5434 18.3719 23.5434 18.8519C23.5434 19.2892 23.4794 19.6945 23.3514 20.0679C23.2341 20.4412 23.0687 20.7985 22.8554 21.1399C22.6421 21.4705 22.3807 21.7959 22.0714 22.1159C21.7727 22.4359 21.4474 22.7559 21.0954 23.0759L18.0874 25.7799H23.9594V26.9639Z" fill="#007A25"/>
</svg>
