<svg width="169" height="237" viewBox="0 0 169 237" fill="none" xmlns="http://www.w3.org/2000/svg">
<g id="Vector" style="mix-blend-mode:color-dodge">
<path d="M143.05 111.212C148.385 103.683 151.662 94.893 152.56 85.7101C153.457 76.5271 151.942 67.269 148.166 58.8504C144.389 50.4318 138.481 43.144 131.026 37.707C123.57 32.2699 114.825 28.8719 105.654 27.8484V0.96875H81.6311V27.5079H65.2602V0.96875H41.1694V27.5079H0.299072V57.5432H28.8856V179.773H0.299072V209.808H41.1694V236.325H65.1921V209.808H81.5629V236.325H105.654V209.808H115.758C127.363 209.796 138.644 205.981 147.875 198.948C157.106 191.915 163.777 182.051 166.868 170.866C169.959 159.682 169.299 147.793 164.989 137.019C160.679 126.245 152.957 117.18 143.005 111.212H143.05ZM99.7275 57.5432C105.84 57.5432 111.702 59.9709 116.024 64.2923C120.346 68.6137 122.774 74.4748 122.774 80.5862C122.774 86.6975 120.346 92.5586 116.024 96.88C111.702 101.201 105.84 103.629 99.7275 103.629H58.8572V57.5432H99.7275ZM115.758 179.773H58.9934V133.664H115.758C121.748 133.852 127.43 136.364 131.6 140.667C135.771 144.97 138.103 150.727 138.103 156.719C138.103 162.711 135.771 168.468 131.6 172.771C127.43 177.074 121.748 179.585 115.758 179.773Z" fill="#7CED09"/>
</g>
</svg>
