<svg width="25" height="24" viewBox="0 0 25 24" fill="none" xmlns="http://www.w3.org/2000/svg">
<g id="SVG">
<path id="Vector" fill-rule="evenodd" clip-rule="evenodd" d="M7.49756 4.49023C7.49756 5.15328 7.23417 5.78916 6.76533 6.258C6.29648 6.72684 5.6606 6.99023 4.99756 6.99023C4.33452 6.99023 3.69863 6.72684 3.22979 6.258C2.76095 5.78916 2.49756 5.15328 2.49756 4.49023C2.49756 3.82719 2.76095 3.19131 3.22979 2.72247C3.69863 2.25363 4.33452 1.99023 4.99756 1.99023C5.6606 1.99023 6.29648 2.25363 6.76533 2.72247C7.23417 3.19131 7.49756 3.82719 7.49756 4.49023ZM14.9976 4.49023C14.9976 5.15328 14.7342 5.78916 14.2653 6.258C13.7965 6.72684 13.1606 6.99023 12.4976 6.99023C11.8345 6.99023 11.1986 6.72684 10.7298 6.258C10.261 5.78916 9.99756 5.15328 9.99756 4.49023C9.99756 3.82719 10.261 3.19131 10.7298 2.72247C11.1986 2.25363 11.8345 1.99023 12.4976 1.99023C13.1606 1.99023 13.7965 2.25363 14.2653 2.72247C14.7342 3.19131 14.9976 3.82719 14.9976 4.49023ZM19.9976 6.99023C20.6606 6.99023 21.2965 6.72684 21.7653 6.258C22.2342 5.78916 22.4976 5.15328 22.4976 4.49023C22.4976 3.82719 22.2342 3.19131 21.7653 2.72247C21.2965 2.25363 20.6606 1.99023 19.9976 1.99023C19.3345 1.99023 18.6986 2.25363 18.2298 2.72247C17.761 3.19131 17.4976 3.82719 17.4976 4.49023C17.4976 5.15328 17.761 5.78916 18.2298 6.258C18.6986 6.72684 19.3345 6.99023 19.9976 6.99023ZM7.49756 11.9902C7.49756 12.6533 7.23417 13.2892 6.76533 13.758C6.29648 14.2268 5.6606 14.4902 4.99756 14.4902C4.33452 14.4902 3.69863 14.2268 3.22979 13.758C2.76095 13.2892 2.49756 12.6533 2.49756 11.9902C2.49756 11.3272 2.76095 10.6913 3.22979 10.2225C3.69863 9.75363 4.33452 9.49023 4.99756 9.49023C5.6606 9.49023 6.29648 9.75363 6.76533 10.2225C7.23417 10.6913 7.49756 11.3272 7.49756 11.9902ZM12.4976 14.4902C13.1606 14.4902 13.7965 14.2268 14.2653 13.758C14.7342 13.2892 14.9976 12.6533 14.9976 11.9902C14.9976 11.3272 14.7342 10.6913 14.2653 10.2225C13.7965 9.75363 13.1606 9.49023 12.4976 9.49023C11.8345 9.49023 11.1986 9.75363 10.7298 10.2225C10.261 10.6913 9.99756 11.3272 9.99756 11.9902C9.99756 12.6533 10.261 13.2892 10.7298 13.758C11.1986 14.2268 11.8345 14.4902 12.4976 14.4902ZM22.4976 11.9902C22.4976 12.6533 22.2342 13.2892 21.7653 13.758C21.2965 14.2268 20.6606 14.4902 19.9976 14.4902C19.3345 14.4902 18.6986 14.2268 18.2298 13.758C17.761 13.2892 17.4976 12.6533 17.4976 11.9902C17.4976 11.3272 17.761 10.6913 18.2298 10.2225C18.6986 9.75363 19.3345 9.49023 19.9976 9.49023C20.6606 9.49023 21.2965 9.75363 21.7653 10.2225C22.2342 10.6913 22.4976 11.3272 22.4976 11.9902ZM4.99756 21.9902C5.6606 21.9902 6.29648 21.7268 6.76533 21.258C7.23417 20.7892 7.49756 20.1533 7.49756 19.4902C7.49756 18.8272 7.23417 18.1913 6.76533 17.7225C6.29648 17.2536 5.6606 16.9902 4.99756 16.9902C4.33452 16.9902 3.69863 17.2536 3.22979 17.7225C2.76095 18.1913 2.49756 18.8272 2.49756 19.4902C2.49756 20.1533 2.76095 20.7892 3.22979 21.258C3.69863 21.7268 4.33452 21.9902 4.99756 21.9902ZM14.9976 19.4902C14.9976 20.1533 14.7342 20.7892 14.2653 21.258C13.7965 21.7268 13.1606 21.9902 12.4976 21.9902C11.8345 21.9902 11.1986 21.7268 10.7298 21.258C10.261 20.7892 9.99756 20.1533 9.99756 19.4902C9.99756 18.8272 10.261 18.1913 10.7298 17.7225C11.1986 17.2536 11.8345 16.9902 12.4976 16.9902C13.1606 16.9902 13.7965 17.2536 14.2653 17.7225C14.7342 18.1913 14.9976 18.8272 14.9976 19.4902ZM19.9976 21.9902C20.6606 21.9902 21.2965 21.7268 21.7653 21.258C22.2342 20.7892 22.4976 20.1533 22.4976 19.4902C22.4976 18.8272 22.2342 18.1913 21.7653 17.7225C21.2965 17.2536 20.6606 16.9902 19.9976 16.9902C19.3345 16.9902 18.6986 17.2536 18.2298 17.7225C17.761 18.1913 17.4976 18.8272 17.4976 19.4902C17.4976 20.1533 17.761 20.7892 18.2298 21.258C18.6986 21.7268 19.3345 21.9902 19.9976 21.9902Z" fill="#22242A"/>
</g>
</svg>
