<svg width="25" height="24" viewBox="0 0 25 24" fill="none" xmlns="http://www.w3.org/2000/svg">
<g id="SVG">
<path id="Vector" d="M8.17759 20.9002C8.14759 20.9002 8.10759 20.9202 8.07759 20.9202C6.13759 19.9602 4.55759 18.3702 3.58759 16.4302C3.58759 16.4002 3.60759 16.3602 3.60759 16.3302C4.82759 16.6902 6.08759 16.9602 7.33759 17.1702C7.55759 18.4302 7.81759 19.6802 8.17759 20.9002ZM21.4676 16.4402C20.4776 18.4302 18.8276 20.0402 16.8176 21.0102C17.1976 19.7402 17.5176 18.4602 17.7276 17.1702C18.9876 16.9602 20.2276 16.6902 21.4476 16.3302C21.4376 16.3702 21.4676 16.4102 21.4676 16.4402ZM21.5476 7.70023C20.2876 7.32023 19.0176 7.01023 17.7276 6.79023C17.5176 5.50023 17.2076 4.22023 16.8176 2.97023C18.8876 3.96023 20.5576 5.63023 21.5476 7.70023ZM8.17759 3.08023C7.81759 4.30023 7.55759 5.54023 7.34759 6.80023C6.05759 7.00023 4.77759 7.32023 3.50759 7.70023C4.47759 5.69023 6.08759 4.04023 8.07759 3.05023C8.10759 3.05023 8.14759 3.08023 8.17759 3.08023ZM16.0176 6.58023C13.6976 6.32023 11.3576 6.32023 9.03759 6.58023C9.28759 5.21023 9.60759 3.84023 10.0576 2.52023C10.0776 2.44023 10.0676 2.38023 10.0776 2.30023C10.8676 2.11023 11.6776 1.99023 12.5276 1.99023C13.3676 1.99023 14.1876 2.11023 14.9676 2.30023C14.9776 2.38023 14.9776 2.44023 14.9976 2.52023C15.4476 3.85023 15.7676 5.21023 16.0176 6.58023ZM7.11759 15.4802C5.73759 15.2302 4.37759 14.9102 3.05759 14.4602C2.97759 14.4402 2.91759 14.4502 2.83759 14.4402C2.64759 13.6502 2.52759 12.8402 2.52759 11.9902C2.52759 11.1502 2.64759 10.3302 2.83759 9.55023C2.91759 9.54023 2.97759 9.54023 3.05759 9.52023C4.38759 9.08023 5.73759 8.75023 7.11759 8.50023C6.86759 10.8202 6.86759 13.1602 7.11759 15.4802ZM22.5276 11.9902C22.5276 12.8402 22.4076 13.6502 22.2176 14.4402C22.1376 14.4502 22.0776 14.4402 21.9976 14.4602C20.6676 14.9002 19.3076 15.2302 17.9376 15.4802C18.1976 13.1602 18.1976 10.8202 17.9376 8.50023C19.3076 8.75023 20.6776 9.07023 21.9976 9.52023C22.0776 9.54023 22.1376 9.55023 22.2176 9.55023C22.4076 10.3402 22.5276 11.1502 22.5276 11.9902ZM16.0176 17.4002C15.7676 18.7802 15.4476 20.1402 14.9976 21.4602C14.9776 21.5402 14.9776 21.6002 14.9676 21.6802C14.1876 21.8702 13.3676 21.9902 12.5276 21.9902C11.6776 21.9902 10.8676 21.8702 10.0776 21.6802C10.0676 21.6002 10.0776 21.5402 10.0576 21.4602C9.62274 20.1325 9.2819 18.7758 9.03759 17.4002C10.1976 17.5302 11.3576 17.6202 12.5276 17.6202C13.6976 17.6202 14.8676 17.5302 16.0176 17.4002ZM16.2906 15.7532C13.7918 16.0688 11.2633 16.0688 8.76459 15.7532C8.44908 13.2545 8.44908 10.726 8.76459 8.22723C11.2633 7.91173 13.7918 7.91173 16.2906 8.22723C16.6061 10.726 16.6061 13.2545 16.2906 15.7532Z" fill="#707A8A"/>
</g>
</svg>
