<svg width="41" height="41" viewBox="0 0 41 41" fill="none" xmlns="http://www.w3.org/2000/svg">
<rect x="0.941406" y="1.45312" width="39" height="39" rx="19.5" fill="#F3FFE5"/>
<rect x="0.941406" y="1.45312" width="39" height="39" rx="19.5" stroke="#007A25"/>
<path d="M19.6074 20.5114C20.3647 20.5114 20.9301 20.3407 21.3034 19.9994C21.6874 19.6474 21.8794 19.1994 21.8794 18.6554V18.5434C21.8794 17.9567 21.6927 17.5194 21.3194 17.2314C20.9567 16.9327 20.4767 16.7834 19.8794 16.7834C19.3034 16.7834 18.8341 16.9114 18.4714 17.1674C18.1087 17.4127 17.8101 17.7487 17.5754 18.1754L16.5834 17.4074C16.7221 17.1834 16.8874 16.9647 17.0794 16.7514C17.2821 16.5274 17.5167 16.33 17.7834 16.1594C18.0501 15.9887 18.3594 15.85 18.7114 15.7434C19.0634 15.6367 19.4634 15.5834 19.9114 15.5834C20.3807 15.5834 20.8234 15.6474 21.2394 15.7754C21.6554 15.8927 22.0127 16.074 22.3114 16.3194C22.6207 16.554 22.8607 16.8474 23.0314 17.1994C23.2127 17.5514 23.3034 17.9514 23.3034 18.3994C23.3034 18.762 23.2447 19.0874 23.1274 19.3754C23.0207 19.6634 22.8714 19.914 22.6794 20.1274C22.4874 20.3407 22.2581 20.522 21.9914 20.6714C21.7354 20.8207 21.4581 20.9327 21.1594 21.0074V21.0714C21.4581 21.1354 21.7461 21.242 22.0234 21.3914C22.3114 21.53 22.5621 21.7167 22.7754 21.9514C22.9994 22.1754 23.1754 22.4527 23.3034 22.7834C23.4421 23.1034 23.5114 23.4714 23.5114 23.8874C23.5114 24.3674 23.4207 24.81 23.2394 25.2154C23.0581 25.61 22.8021 25.9514 22.4714 26.2394C22.1407 26.5167 21.7407 26.7354 21.2714 26.8954C20.8021 27.0554 20.2847 27.1354 19.7194 27.1354C19.2394 27.1354 18.8127 27.082 18.4394 26.9754C18.0661 26.8687 17.7354 26.7247 17.4474 26.5434C17.1594 26.362 16.9034 26.1594 16.6794 25.9354C16.4661 25.7114 16.2741 25.4767 16.1034 25.2314L17.1114 24.4634C17.2501 24.6874 17.3994 24.89 17.5594 25.0714C17.7301 25.2527 17.9167 25.4074 18.1194 25.5354C18.3221 25.6634 18.5514 25.7647 18.8074 25.8394C19.0634 25.9034 19.3621 25.9354 19.7034 25.9354C20.4927 25.9354 21.0901 25.7594 21.4954 25.4074C21.9007 25.0447 22.1034 24.5327 22.1034 23.8714V23.7434C22.1034 23.082 21.9007 22.5754 21.4954 22.2234C21.0901 21.8607 20.4927 21.6794 19.7034 21.6794H18.3914V20.5114H19.6074Z" fill="#007A25"/>
</svg>
