<svg width="25" height="24" viewBox="0 0 25 24" fill="none" xmlns="http://www.w3.org/2000/svg">
<g id="SVG">
<path id="Vector" d="M19.8675 14.4801L18.8675 12.8201C18.6575 12.4501 18.4675 11.7501 18.4675 11.3401V8.81014C18.4675 5.55014 15.8175 2.89014 12.5475 2.89014C9.27753 2.89014 6.62753 5.55014 6.62753 8.81014V11.3401C6.62753 11.7501 6.43753 12.4501 6.22753 12.8101L5.21753 14.4801C4.81753 15.1501 4.72753 15.8901 4.97753 16.5701C5.21753 17.2401 5.78753 17.7601 6.52753 18.0101C8.46753 18.6701 10.5075 18.9901 12.5475 18.9901C14.5875 18.9901 16.6275 18.6701 18.5675 18.0201C19.2675 17.7901 19.8075 17.2601 20.0675 16.5701C20.3275 15.8801 20.2575 15.1201 19.8675 14.4801Z" fill="#707A8A"/>
<path id="Vector_2" d="M14.7776 3.31023C14.0876 3.04023 13.3376 2.89023 12.5476 2.89023C11.7676 2.89023 11.0176 3.03023 10.3276 3.31023C10.7576 2.50023 11.6076 1.99023 12.5476 1.99023C13.4976 1.99023 14.3376 2.50023 14.7776 3.31023ZM15.3576 20.0002C15.1473 20.5824 14.7629 21.0857 14.2566 21.4417C13.7503 21.7977 13.1466 21.9893 12.5276 21.9902C11.7376 21.9902 10.9576 21.6702 10.4076 21.1002C10.0876 20.8002 9.84764 20.4002 9.70764 19.9902C9.83764 20.0102 9.96764 20.0202 10.1076 20.0402C10.3376 20.0702 10.5776 20.1002 10.8176 20.1202C11.3876 20.1702 11.9676 20.2002 12.5476 20.2002C13.1176 20.2002 13.6876 20.1702 14.2476 20.1202C14.4576 20.1002 14.6676 20.0902 14.8676 20.0602L15.3576 20.0002Z" fill="#707A8A"/>
</g>
</svg>
